<svg width="159" height="19" viewBox="0 0 159 19" fill="none" xmlns="http://www.w3.org/2000/svg">
<path d="M37.5142 18.24C36.3942 18.24 35.4102 18.032 34.5622 17.616C33.7302 17.184 33.0822 16.584 32.6182 15.816C32.1542 15.032 31.9222 14.112 31.9222 13.056V9.744C31.9222 8.672 32.1542 7.752 32.6182 6.984C33.0822 6.216 33.7302 5.624 34.5622 5.208C35.4102 4.776 36.3942 4.56 37.5142 4.56C39.1782 4.56 40.5062 4.992 41.4982 5.856C42.4902 6.704 43.0102 7.864 43.0582 9.336H40.0582C40.0102 8.648 39.7622 8.12 39.3142 7.752C38.8822 7.368 38.2822 7.176 37.5142 7.176C36.7142 7.176 36.0822 7.4 35.6182 7.848C35.1542 8.28 34.9222 8.904 34.9222 9.72V13.056C34.9222 13.872 35.1542 14.504 35.6182 14.952C36.0822 15.4 36.7142 15.624 37.5142 15.624C38.2822 15.624 38.8822 15.44 39.3142 15.072C39.7622 14.688 40.0102 14.152 40.0582 13.464H43.0582C43.0102 14.936 42.4902 16.104 41.4982 16.968C40.5062 17.816 39.1782 18.24 37.5142 18.24ZM46.5528 18V0.48H49.5528V9.984H51.6408L54.8568 4.8H58.2168L54.2328 11.184L58.2888 18H54.8568L51.6408 12.528H49.5528V18H46.5528ZM66.2474 18.24C65.1274 18.24 64.1514 18.024 63.3194 17.592C62.4874 17.16 61.8394 16.56 61.3754 15.792C60.9274 15.008 60.7034 14.096 60.7034 13.056V9.744C60.7034 8.704 60.9274 7.8 61.3754 7.032C61.8394 6.248 62.4874 5.64 63.3194 5.208C64.1514 4.776 65.1274 4.56 66.2474 4.56C67.3514 4.56 68.3114 4.776 69.1274 5.208C69.9594 5.64 70.5994 6.248 71.0474 7.032C71.5114 7.8 71.7434 8.704 71.7434 9.744V12.12H63.6074V13.056C63.6074 13.984 63.8314 14.688 64.2794 15.168C64.7274 15.632 65.3914 15.864 66.2714 15.864C66.9434 15.864 67.4874 15.752 67.9034 15.528C68.3194 15.288 68.5834 14.944 68.6954 14.496H71.6474C71.4234 15.632 70.8154 16.544 69.8234 17.232C68.8474 17.904 67.6554 18.24 66.2474 18.24ZM68.8394 10.44V9.72C68.8394 8.808 68.6234 8.112 68.1914 7.632C67.7594 7.136 67.1114 6.888 66.2474 6.888C65.3834 6.888 64.7274 7.136 64.2794 7.632C63.8314 8.128 63.6074 8.832 63.6074 9.744V10.248L69.0554 10.2L68.8394 10.44ZM82.0541 18C80.7901 18 79.7981 17.648 79.0781 16.944C78.3741 16.24 78.0221 15.272 78.0221 14.04V7.512H74.4461V4.8H78.0221V1.08H81.0461V4.8H86.1101V7.512H81.0461V14.04C81.0461 14.872 81.4541 15.288 82.2701 15.288H85.8701V18H82.0541ZM95.0047 18.24C94.3167 18.24 93.7647 18.04 93.3487 17.64C92.9487 17.24 92.7487 16.696 92.7487 16.008C92.7487 15.32 92.9487 14.776 93.3487 14.376C93.7647 13.96 94.3167 13.752 95.0047 13.752C95.6927 13.752 96.2367 13.96 96.6367 14.376C97.0527 14.776 97.2607 15.32 97.2607 16.008C97.2607 16.696 97.0527 17.24 96.6367 17.64C96.2367 18.04 95.6927 18.24 95.0047 18.24ZM108.891 18.216C107.883 18.216 107.003 18.056 106.251 17.736C105.499 17.416 104.907 16.976 104.475 16.416C104.059 15.84 103.835 15.168 103.803 14.4H106.803C106.835 14.816 107.035 15.152 107.403 15.408C107.787 15.664 108.283 15.792 108.891 15.792H109.947C110.683 15.792 111.235 15.648 111.603 15.36C111.971 15.072 112.155 14.68 112.155 14.184C112.155 13.72 111.987 13.36 111.651 13.104C111.331 12.832 110.827 12.656 110.139 12.576L108.507 12.336C107.003 12.128 105.899 11.728 105.195 11.136C104.491 10.544 104.139 9.656 104.139 8.472C104.139 7.24 104.555 6.288 105.387 5.616C106.219 4.928 107.443 4.584 109.059 4.584H109.971C111.443 4.584 112.619 4.912 113.499 5.568C114.379 6.224 114.851 7.104 114.915 8.208H111.915C111.867 7.856 111.667 7.568 111.315 7.344C110.979 7.12 110.531 7.008 109.971 7.008H109.059C108.371 7.008 107.867 7.136 107.547 7.392C107.243 7.632 107.091 7.992 107.091 8.472C107.091 8.92 107.227 9.256 107.499 9.48C107.771 9.688 108.211 9.84 108.819 9.936L110.523 10.176C112.091 10.4 113.243 10.824 113.979 11.448C114.731 12.056 115.107 12.96 115.107 14.16C115.107 15.44 114.667 16.44 113.787 17.16C112.923 17.864 111.643 18.216 109.947 18.216H108.891ZM123.81 18.24C122.69 18.24 121.714 18.024 120.882 17.592C120.05 17.16 119.402 16.56 118.938 15.792C118.49 15.008 118.266 14.096 118.266 13.056V9.744C118.266 8.704 118.49 7.8 118.938 7.032C119.402 6.248 120.05 5.64 120.882 5.208C121.714 4.776 122.69 4.56 123.81 4.56C124.914 4.56 125.874 4.776 126.69 5.208C127.522 5.64 128.162 6.248 128.61 7.032C129.074 7.8 129.306 8.704 129.306 9.744V12.12H121.17V13.056C121.17 13.984 121.394 14.688 121.842 15.168C122.29 15.632 122.954 15.864 123.834 15.864C124.506 15.864 125.05 15.752 125.466 15.528C125.882 15.288 126.146 14.944 126.258 14.496H129.21C128.986 15.632 128.378 16.544 127.386 17.232C126.41 17.904 125.218 18.24 123.81 18.24ZM126.402 10.44V9.72C126.402 8.808 126.186 8.112 125.754 7.632C125.322 7.136 124.674 6.888 123.81 6.888C122.946 6.888 122.29 7.136 121.842 7.632C121.394 8.128 121.17 8.832 121.17 9.744V10.248L126.618 10.2L126.402 10.44ZM138.249 18.24C137.129 18.24 136.145 18.032 135.297 17.616C134.465 17.184 133.817 16.584 133.353 15.816C132.889 15.032 132.657 14.112 132.657 13.056V9.744C132.657 8.672 132.889 7.752 133.353 6.984C133.817 6.216 134.465 5.624 135.297 5.208C136.145 4.776 137.129 4.56 138.249 4.56C139.913 4.56 141.241 4.992 142.233 5.856C143.225 6.704 143.745 7.864 143.793 9.336H140.793C140.745 8.648 140.497 8.12 140.049 7.752C139.617 7.368 139.017 7.176 138.249 7.176C137.449 7.176 136.817 7.4 136.353 7.848C135.889 8.28 135.657 8.904 135.657 9.72V13.056C135.657 13.872 135.889 14.504 136.353 14.952C136.817 15.4 137.449 15.624 138.249 15.624C139.017 15.624 139.617 15.44 140.049 15.072C140.497 14.688 140.745 14.152 140.793 13.464H143.793C143.745 14.936 143.225 16.104 142.233 16.968C141.241 17.816 139.913 18.24 138.249 18.24ZM154.007 18C152.743 18 151.751 17.648 151.031 16.944C150.327 16.24 149.975 15.272 149.975 14.04V7.512H146.399V4.8H149.975V1.08H152.999V4.8H158.063V7.512H152.999V14.04C152.999 14.872 153.407 15.288 154.223 15.288H157.823V18H154.007Z" fill="white"/>
<path d="M21.4611 10.1706C19.1683 10.1706 17.303 8.41653 17.303 6.26037C17.303 4.10427 19.1683 2.35016 21.4611 2.35016C23.7538 2.35016 25.6192 4.10427 25.6192 6.26037C25.6192 8.41653 23.7538 10.1706 21.4611 10.1706ZM21.4611 3.33817C19.7837 3.33817 18.419 4.64905 18.419 6.26037C18.419 7.87168 19.7837 9.18262 21.4611 9.18262C23.1384 9.18262 24.5031 7.87168 24.5031 6.26037C24.5031 4.64905 23.1384 3.33817 21.4611 3.33817Z" fill="#00BFA6"/>
<path d="M21.4703 10.0774C19.1724 10.0774 17.303 8.26563 17.303 6.03865C17.303 3.81173 19.1724 2 21.4703 2C23.7681 2 25.6376 3.81173 25.6376 6.03865C25.6376 8.26563 23.7681 10.0774 21.4703 10.0774ZM21.4703 3.02047C19.7892 3.02047 18.4215 4.37441 18.4215 6.03865C18.4215 7.70289 19.7892 9.0569 21.4703 9.0569C23.1514 9.0569 24.519 7.70289 24.519 6.03865C24.519 4.37441 23.1514 3.02047 21.4703 3.02047Z" fill="#00BFA6"/>
<path d="M25.5177 18H17.6252C16.9292 17.9993 16.2619 17.7468 15.7698 17.2978C15.2776 16.8488 15.0008 16.24 15 15.605V8.54211C15.0005 8.10739 15.1901 7.69061 15.527 7.38321C15.8639 7.07582 16.3207 6.9029 16.7972 6.9024H26.3456C26.8221 6.9029 27.2789 7.07582 27.6159 7.38321C27.9528 7.69061 28.1423 8.10739 28.1429 8.54211V15.605C28.1421 16.24 27.8652 16.8488 27.3731 17.2978C26.881 17.7468 26.2137 17.9993 25.5177 18Z" fill="white"/>
<path d="M23.0657 11.5749C23.0659 11.3254 22.9932 11.0805 22.8551 10.8652C22.7171 10.6499 22.5186 10.4721 22.2802 10.3501C22.0417 10.228 21.7719 10.1662 21.4986 10.1709C21.2252 10.1756 20.9582 10.2467 20.725 10.3769C20.4918 10.5071 20.3008 10.6916 20.1718 10.9115C20.0427 11.1314 19.9803 11.3787 19.9908 11.628C20.0014 11.8772 20.0846 12.1194 20.2318 12.3295C20.3791 12.5397 20.5851 12.7102 20.8286 12.8236V15.0189H22.2268V12.8236C22.4792 12.7062 22.6911 12.5275 22.8392 12.3071C22.9872 12.0868 23.0656 11.8333 23.0657 11.5749Z" fill="white"/>
<path d="M23.0657 11.5749C23.0659 11.3254 22.9932 11.0805 22.8551 10.8652C22.7171 10.6499 22.5186 10.4721 22.2802 10.3501C22.0417 10.228 21.7719 10.1662 21.4986 10.1709C21.2252 10.1756 20.9582 10.2467 20.725 10.3769C20.4918 10.5071 20.3008 10.6916 20.1718 10.9115C20.0427 11.1314 19.9803 11.3787 19.9908 11.628C20.0014 11.8772 20.0846 12.1194 20.2318 12.3295C20.3791 12.5397 20.5851 12.7102 20.8286 12.8236V15.0189H22.2268V12.8236C22.4792 12.7062 22.6911 12.5275 22.8392 12.3071C22.9872 12.0868 23.0656 11.8333 23.0657 11.5749Z" fill="#2F2E41"/>
<path d="M0.656465 18V0.48H6.20047C7.36847 0.48 8.37647 0.696 9.22447 1.128C10.0885 1.56 10.7605 2.168 11.2405 2.952C11.7205 3.72 11.9605 4.632 11.9605 5.688C11.9605 6.84 11.6645 7.856 11.0725 8.736C10.4965 9.616 9.71247 10.24 8.72047 10.608L12.2005 18H8.84047L5.79247 11.04H3.65647V18H0.656465ZM3.65647 8.4H6.20047C7.04847 8.4 7.71247 8.168 8.19247 7.704C8.67247 7.24 8.91247 6.6 8.91247 5.784C8.91247 4.952 8.67247 4.304 8.19247 3.84C7.71247 3.36 7.04847 3.12 6.20047 3.12H3.65647V8.4Z" fill="white"/>
</svg>
